<svg width="23" height="23" viewBox="0 0 23 23" fill="none" xmlns="http://www.w3.org/2000/svg">
<path d="M17.2099 15.0084L14.1295 12.1901C14.59 11.5151 14.8479 10.6941 14.8089 9.81683C14.7131 7.6596 12.8803 5.98272 10.7231 6.07857C8.56582 6.17441 6.88894 8.00723 6.98479 10.1645C7.08063 12.3217 8.91345 13.9986 11.0707 13.9027C11.9479 13.8638 12.7428 13.5341 13.3744 13.0155L16.4547 15.8338L17.2099 15.0084ZM7.35737 10.1479C7.27065 8.19615 8.78785 6.53786 10.7396 6.45115C12.6914 6.36443 14.3496 7.88163 14.4364 9.83339C14.5231 11.7851 13.0059 13.4434 11.0541 13.5301C9.10237 13.6169 7.44408 12.0997 7.35737 10.1479ZM13.7355 12.6817C13.7672 12.6482 13.7984 12.6142 13.8289 12.5796C13.8549 12.5503 13.8832 12.5231 13.9081 12.493L16.683 15.0318L16.4312 15.3071L13.6564 12.7681C13.6841 12.7406 13.7085 12.71 13.7355 12.6817Z" fill="#C0BFC7" fill-opacity="0.68"/>
</svg>
