<svg width="181" height="72" viewBox="0 0 181 72" fill="none" xmlns="http://www.w3.org/2000/svg">
<g filter="url(#filter0_d_13_12)">
<path d="M34.276 41.224C33.5107 41.224 32.82 41.1027 32.204 40.86C31.588 40.608 31.0747 40.244 30.664 39.768L32.442 37.668C32.7033 37.9853 32.96 38.228 33.212 38.396C33.464 38.5547 33.7253 38.634 33.996 38.634C34.7053 38.634 35.06 38.228 35.06 37.416V33.692H31.728V31.2H38.322V37.22C38.322 38.564 37.9767 39.5673 37.286 40.23C36.5953 40.8927 35.592 41.224 34.276 41.224ZM48.6151 41.224C47.8217 41.224 47.0844 41.098 46.4031 40.846C45.7311 40.594 45.1477 40.2393 44.6531 39.782C44.1584 39.3153 43.7711 38.7693 43.4911 38.144C43.2204 37.5187 43.0851 36.8373 43.0851 36.1C43.0851 35.3533 43.2204 34.672 43.4911 34.056C43.7711 33.4307 44.1584 32.8893 44.6531 32.432C45.1477 31.9653 45.7311 31.606 46.4031 31.354C47.0844 31.102 47.8217 30.976 48.6151 30.976C49.4177 30.976 50.1551 31.102 50.8271 31.354C51.4991 31.606 52.0824 31.9653 52.5771 32.432C53.0717 32.8893 53.4544 33.4307 53.7251 34.056C54.0051 34.672 54.1451 35.3533 54.1451 36.1C54.1451 36.8373 54.0051 37.5187 53.7251 38.144C53.4544 38.7693 53.0717 39.3153 52.5771 39.782C52.0824 40.2393 51.4991 40.594 50.8271 40.846C50.1551 41.098 49.4177 41.224 48.6151 41.224ZM48.6151 38.55C48.9231 38.55 49.2077 38.494 49.4691 38.382C49.7397 38.27 49.9731 38.1113 50.1691 37.906C50.3744 37.6913 50.5331 37.4347 50.6451 37.136C50.7571 36.828 50.8131 36.4827 50.8131 36.1C50.8131 35.7173 50.7571 35.3767 50.6451 35.078C50.5331 34.77 50.3744 34.5133 50.1691 34.308C49.9731 34.0933 49.7397 33.93 49.4691 33.818C49.2077 33.706 48.9231 33.65 48.6151 33.65C48.3071 33.65 48.0177 33.706 47.7471 33.818C47.4857 33.93 47.2524 34.0933 47.0471 34.308C46.8511 34.5133 46.6971 34.77 46.5851 35.078C46.4731 35.3767 46.4171 35.7173 46.4171 36.1C46.4171 36.4827 46.4731 36.828 46.5851 37.136C46.6971 37.4347 46.8511 37.6913 47.0471 37.906C47.2524 38.1113 47.4857 38.27 47.7471 38.382C48.0177 38.494 48.3071 38.55 48.6151 38.55ZM58.9843 41V31.2H64.2203C65.5736 31.2 66.5723 31.4427 67.2163 31.928C67.8603 32.404 68.1823 33.0153 68.1823 33.762C68.1823 34.2567 68.0423 34.7 67.7623 35.092C67.4916 35.4747 67.0949 35.778 66.5723 36.002C66.0496 36.226 65.4056 36.338 64.6403 36.338L64.9203 35.582C65.6856 35.582 66.3436 35.6893 66.8943 35.904C67.4543 36.1187 67.8836 36.4313 68.1823 36.842C68.4903 37.2433 68.6443 37.7287 68.6443 38.298C68.6443 39.1473 68.2896 39.81 67.5803 40.286C66.8803 40.762 65.8536 41 64.5003 41H58.9843ZM62.2323 38.69H64.2203C64.5843 38.69 64.8549 38.6247 65.0323 38.494C65.2189 38.3633 65.3123 38.172 65.3123 37.92C65.3123 37.668 65.2189 37.4767 65.0323 37.346C64.8549 37.2153 64.5843 37.15 64.2203 37.15H62.0083V34.966H63.7723C64.1456 34.966 64.4163 34.9053 64.5843 34.784C64.7616 34.6533 64.8503 34.4713 64.8503 34.238C64.8503 33.9953 64.7616 33.8133 64.5843 33.692C64.4163 33.5707 64.1456 33.51 63.7723 33.51H62.2323V38.69ZM89.1269 41V31.2H93.8449C94.7596 31.2 95.5482 31.3493 96.2109 31.648C96.8829 31.9467 97.4009 32.376 97.7649 32.936C98.1289 33.4867 98.3109 34.14 98.3109 34.896C98.3109 35.652 98.1289 36.3053 97.7649 36.856C97.4009 37.4067 96.8829 37.836 96.2109 38.144C95.5482 38.4427 94.7596 38.592 93.8449 38.592H90.9609L92.4309 37.178V41H89.1269ZM92.4309 37.542L90.9609 36.044H93.6349C94.0922 36.044 94.4282 35.9413 94.6429 35.736C94.8669 35.5307 94.9789 35.2507 94.9789 34.896C94.9789 34.5413 94.8669 34.2613 94.6429 34.056C94.4282 33.8507 94.0922 33.748 93.6349 33.748H90.9609L92.4309 32.25V37.542ZM108.309 41.224C107.516 41.224 106.779 41.098 106.097 40.846C105.425 40.594 104.842 40.2393 104.347 39.782C103.853 39.3153 103.465 38.7693 103.185 38.144C102.915 37.5187 102.779 36.8373 102.779 36.1C102.779 35.3533 102.915 34.672 103.185 34.056C103.465 33.4307 103.853 32.8893 104.347 32.432C104.842 31.9653 105.425 31.606 106.097 31.354C106.779 31.102 107.516 30.976 108.309 30.976C109.112 30.976 109.849 31.102 110.521 31.354C111.193 31.606 111.777 31.9653 112.271 32.432C112.766 32.8893 113.149 33.4307 113.419 34.056C113.699 34.672 113.839 35.3533 113.839 36.1C113.839 36.8373 113.699 37.5187 113.419 38.144C113.149 38.7693 112.766 39.3153 112.271 39.782C111.777 40.2393 111.193 40.594 110.521 40.846C109.849 41.098 109.112 41.224 108.309 41.224ZM108.309 38.55C108.617 38.55 108.902 38.494 109.163 38.382C109.434 38.27 109.667 38.1113 109.863 37.906C110.069 37.6913 110.227 37.4347 110.339 37.136C110.451 36.828 110.507 36.4827 110.507 36.1C110.507 35.7173 110.451 35.3767 110.339 35.078C110.227 34.77 110.069 34.5133 109.863 34.308C109.667 34.0933 109.434 33.93 109.163 33.818C108.902 33.706 108.617 33.65 108.309 33.65C108.001 33.65 107.712 33.706 107.441 33.818C107.18 33.93 106.947 34.0933 106.741 34.308C106.545 34.5133 106.391 34.77 106.279 35.078C106.167 35.3767 106.111 35.7173 106.111 36.1C106.111 36.4827 106.167 36.828 106.279 37.136C106.391 37.4347 106.545 37.6913 106.741 37.906C106.947 38.1113 107.18 38.27 107.441 38.382C107.712 38.494 108.001 38.55 108.309 38.55ZM118.678 41V31.2H121.982V41H118.678ZM127.213 41V31.2H129.929L134.913 37.164H133.653V31.2H136.873V41H134.157L129.173 35.036H130.433V41H127.213ZM144.233 41V33.762H141.363V31.2H150.407V33.762H147.537V41H144.233Z" fill="black"/>
</g>
<path fill-rule="evenodd" clip-rule="evenodd" d="M76.8214 33.0002C77.4511 32.992 78.1434 33.2016 78.7483 33.6368C79.3531 33.2016 80.0454 32.992 80.6751 33.0002C81.3681 33.0093 82.0024 33.2863 82.3095 33.8315C82.6141 34.3723 82.56 35.1121 82.0481 35.986C81.5354 36.8612 80.5488 37.9007 78.9179 39.0786C78.901 39.0912 78.8827 39.1017 78.8632 39.11C78.7916 39.1407 78.7063 39.1414 78.6333 39.11C78.6138 39.1017 78.5955 39.0912 78.5786 39.0786C76.9477 37.9007 75.9611 36.8612 75.4484 35.986C74.9365 35.1121 74.8824 34.3723 75.187 33.8315C75.4941 33.2863 76.1284 33.0093 76.8214 33.0002Z" fill="#AA93F4"/>
<defs>
<filter id="filter0_d_13_12" x="0.664001" y="0.976013" width="179.743" height="70.248" filterUnits="userSpaceOnUse" color-interpolation-filters="sRGB">
<feFlood flood-opacity="0" result="BackgroundImageFix"/>
<feColorMatrix in="SourceAlpha" type="matrix" values="0 0 0 0 0 0 0 0 0 0 0 0 0 0 0 0 0 0 127 0" result="hardAlpha"/>
<feOffset/>
<feGaussianBlur stdDeviation="15"/>
<feComposite in2="hardAlpha" operator="out"/>
<feColorMatrix type="matrix" values="0 0 0 0 0.979167 0 0 0 0 0.979167 0 0 0 0 0.979167 0 0 0 0.46 0"/>
<feBlend mode="normal" in2="BackgroundImageFix" result="effect1_dropShadow_13_12"/>
<feBlend mode="normal" in="SourceGraphic" in2="effect1_dropShadow_13_12" result="shape"/>
</filter>
</defs>
</svg>
