<?xml version="1.0" encoding="UTF-8"?>
<!-- Generated by Pixelmator Pro 2.4.5 -->
<svg width="35" height="21" viewBox="0 0 35 21" xmlns="http://www.w3.org/2000/svg" xmlns:xlink="http://www.w3.org/1999/xlink">
    <g id="Group-copy">
        <path id="Path" fill="#ffffff" stroke="none" d="M 32.317299 20.2083 L 2.68877 20.2083 C 2.30038 20.2083 1.92791 20.065201 1.65328 19.8104 C 1.37865 19.555599 1.22437 19.2101 1.22437 18.8498 L 1.22437 2.144901 C 1.22437 1.863359 1.34492 1.593349 1.5595 1.39427 C 1.77409 1.19519 2.06513 1.08334 2.3686 1.08334 L 32.626801 1.08334 C 32.938099 1.08334 33.236599 1.198071 33.456799 1.40229 C 33.676899 1.606501 33.800499 1.88348 33.800499 2.172291 L 33.800499 18.8323 C 33.800499 19.013 33.762199 19.1919 33.687599 19.3589 C 33.613098 19.525801 33.503799 19.6775 33.3661 19.8053 C 33.228401 19.9331 33.064899 20.034401 32.884899 20.1036 C 32.705002 20.1728 32.5121 20.2083 32.317299 20.2083 L 32.317299 20.2083 Z"/>
        <path id="path1" fill="#af9cf3" fill-opacity="0.74" stroke="none" d="M 23.1441 9.844 C 23.1443 9.2253 22.922001 8.6243 22.5124 8.136 C 22.1028 7.6478 21.529301 7.3004 20.882799 7.148701 C 20.2362 6.997101 19.5536 7.0499 18.9431 7.298901 C 18.3326 7.547901 17.829201 7.978699 17.512501 8.523201 C 17.195801 7.978699 16.692301 7.547901 16.0818 7.298901 C 15.4713 7.0499 14.7887 6.997101 14.1422 7.148701 C 13.4956 7.3004 12.9221 7.6478 12.5125 8.136 C 12.1029 8.6243 11.8806 9.2253 11.8809 9.844 C 11.8809 10.5042 12.1303 11.1096 12.5446 11.5865 L 12.5436 11.5875 L 17.512501 17.3004 L 22.480801 11.5875 L 22.479799 11.5865 C 22.91 11.0935 23.144501 10.4783 23.1441 9.844 L 23.1441 9.844 Z"/>
        <path id="path2" fill="none" stroke="#000000" stroke-linecap="round" stroke-linejoin="round" d="M 32.671398 20.5163 L 3.04284 20.5163 C 2.65446 20.5163 2.28198 20.373199 2.00735 20.118401 C 1.73272 19.8636 1.57844 19.518 1.57844 19.1577 L 1.57844 2.45285 C 1.57844 2.17131 1.69899 1.9013 1.91358 1.702221 C 2.12816 1.503139 2.41921 1.3913 2.72268 1.3913 L 32.9809 1.3913 C 33.292198 1.3913 33.590698 1.50602 33.810799 1.710239 C 34.030998 1.914459 34.154598 2.191429 34.154598 2.48024 L 34.154598 19.1402 C 34.154598 19.3209 34.116299 19.499901 34.041698 19.6668 C 33.967201 19.833799 33.857899 19.9855 33.7202 20.1133 C 33.5825 20.240999 33.4189 20.3424 33.238998 20.4116 C 33.058998 20.4807 32.866199 20.5163 32.671398 20.5163 L 32.671398 20.5163 Z"/>
        <path id="path3" fill="none" stroke="#000000" stroke-linecap="round" stroke-linejoin="round" d="M 2.08741 1.863529 L 9.7225 9.4191 M 33.645599 1.863529 L 26.0105 9.4191"/>
        <path id="path4" fill="none" stroke="#000000" stroke-linecap="round" stroke-linejoin="round" d="M 23.498199 10.152 C 23.4984 9.5333 23.2761 8.932201 22.866501 8.444 C 22.4569 7.955799 21.8834 7.608299 21.236799 7.456699 C 20.5903 7.305099 19.9077 7.357899 19.297199 7.606899 C 18.686701 7.8559 18.1833 8.286701 17.8666 8.8312 C 17.549801 8.286701 17.0464 7.8559 16.4359 7.606899 C 15.825399 7.357899 15.142799 7.305099 14.4963 7.456699 C 13.8497 7.608299 13.2762 7.955799 12.8666 8.444 C 12.457 8.932201 12.2347 9.5333 12.2349 10.152 C 12.2349 10.812201 12.4844 11.4175 12.8987 11.894501 L 12.8977 11.895399 L 17.8666 17.6084 L 22.8349 11.895399 L 22.8339 11.894501 C 23.264099 11.401501 23.4986 10.786301 23.498199 10.152 L 23.498199 10.152 Z"/>
    </g>
</svg>
