<svg width="20" height="20" viewBox="0 0 20 20" fill="none" xmlns="http://www.w3.org/2000/svg">
<path d="M10.2977 9.74807V0.562149C10.2977 0.249844 10.0479 0 9.73559 0C9.42329 0 9.17344 0.249844 9.17344 0.562149V9.74807C7.87009 10.0104 6.88321 11.1639 6.88321 12.5463C6.88321 13.9288 7.87009 15.0822 9.17344 15.3446V19.4337C9.17344 19.746 9.42329 19.9958 9.73559 19.9958C10.0479 19.9958 10.2977 19.746 10.2977 19.4337V15.3446C11.6011 15.0822 12.588 13.9288 12.588 12.5463C12.588 11.168 11.6053 10.0104 10.2977 9.74807ZM9.73559 14.2744C8.78202 14.2744 8.00751 13.4999 8.00751 12.5463C8.00751 11.5928 8.78202 10.8182 9.73559 10.8182C10.6892 10.8182 11.4637 11.5928 11.4637 12.5463C11.4637 13.4999 10.6892 14.2744 9.73559 14.2744Z" fill="black"/>
<path d="M3.41453 5.03435V0.562149C3.41453 0.249844 3.16469 0 2.85238 0C2.54008 0 2.29024 0.249844 2.29024 0.562149V5.03435C0.986883 5.29669 0 6.45014 0 7.8326C0 9.21507 0.986883 10.3685 2.29024 10.6309V19.4337C2.29024 19.746 2.54008 19.9958 2.85238 19.9958C3.16469 19.9958 3.41453 19.746 3.41453 19.4337V10.6267C4.71788 10.3644 5.70477 9.21091 5.70477 7.82844C5.70477 6.44597 4.71788 5.29669 3.41453 5.03435ZM2.85238 9.56069C1.89881 9.56069 1.1243 8.78617 1.1243 7.8326C1.1243 6.87903 1.89881 6.10452 2.85238 6.10452C3.80595 6.10452 4.58047 6.87903 4.58047 7.8326C4.58047 8.78617 3.80179 9.56069 2.85238 9.56069Z" fill="black"/>
<path d="M17.1393 5.03435V0.562149C17.1393 0.249844 16.8895 0 16.5771 0C16.2648 0 16.015 0.249844 16.015 0.562149V5.03435C14.7116 5.29669 13.7248 6.45014 13.7248 7.83261C13.7248 9.21507 14.7116 10.3685 16.015 10.6309V19.4379C16.015 19.7502 16.2648 20 16.5771 20C16.8895 20 17.1393 19.7502 17.1393 19.4379V10.6267C18.4426 10.3644 19.4295 9.21091 19.4295 7.82844C19.4295 6.44597 18.4468 5.29669 17.1393 5.03435ZM16.5771 9.56069C15.6236 9.56069 14.8491 8.78618 14.8491 7.83261C14.8491 6.87903 15.6236 6.10452 16.5771 6.10452C17.5307 6.10452 18.3052 6.87903 18.3052 7.83261C18.3052 8.78618 17.5307 9.56069 16.5771 9.56069Z" fill="black"/>
</svg>
