<svg width="21" height="20" viewBox="0 0 21 20" fill="none" xmlns="http://www.w3.org/2000/svg">
<g clip-path="url(#clip0_13_18)">
<path d="M10.5623 19.9544C9.05124 19.9544 7.74366 18.6423 7.33012 16.7412H0.432822C0.259731 16.7412 0.102495 16.6427 0.0349344 16.4907C-0.0333326 16.3389 0.000194989 16.1634 0.120268 16.0432C0.565216 15.6002 0.988755 15.2563 1.36281 14.9527C2.28189 14.2064 2.83701 13.7558 2.83701 12.5925V8.74431C2.85509 5.433 5.16961 2.48736 8.3822 1.62926C8.53792 0.956686 9.10284 0.0455933 10.4994 0.0455933C11.8815 0.0455933 12.4532 0.985924 12.6136 1.67331C15.844 2.53448 18.1697 5.46195 18.1863 8.74296V12.7192C18.1863 13.8468 18.6775 14.2289 19.5673 14.9211C19.9598 15.2261 20.404 15.5717 20.8796 16.0436C20.9993 16.1631 21.0336 16.339 20.9649 16.4911C20.897 16.6429 20.7402 16.7417 20.5671 16.7417H13.7938C13.3802 18.6424 12.0734 19.9544 10.5623 19.9544ZM8.25829 16.8896C8.64577 18.2127 9.56486 19.1297 10.5623 19.1297C11.5594 19.1297 12.4778 18.2127 12.8656 16.8896H8.25829ZM1.5149 15.9162H19.473C19.3161 15.7891 19.1644 15.6711 19.0204 15.56C18.0714 14.8216 17.3214 14.2386 17.3214 12.7192V8.74431C17.3063 5.74663 15.1233 3.07933 12.13 2.40541C11.9453 2.36377 11.8109 2.21229 11.7975 2.03196C11.7888 1.91558 11.6674 0.869934 10.5 0.869934C9.29825 0.869934 9.20797 1.86711 9.20251 1.98137C9.19242 2.16449 9.05649 2.31905 8.86926 2.36069C5.89277 3.0298 3.72035 5.71566 3.70409 8.74671V12.5929C3.70409 14.137 2.87933 14.8057 1.9248 15.5809C1.79362 15.6866 1.65628 15.7982 1.5149 15.9162Z" fill="#010002"/>
<path d="M12.8074 2.5724C12.7658 2.5724 12.7232 2.56653 12.6813 2.55413C10.3849 1.88848 8.49067 2.4467 8.47158 2.45256C8.24244 2.52143 8.00098 2.40159 7.92797 2.18548C7.85496 1.96898 7.97968 1.73729 8.20659 1.66775C8.29364 1.64092 10.3653 1.02134 12.9332 1.76547C13.1619 1.83126 13.2906 2.06179 13.2216 2.27973C13.1645 2.45776 12.9925 2.5724 12.8074 2.5724Z" fill="#010002"/>
<circle r="3.5" transform="matrix(1 0 0 -1 17.5 5.5)" fill="#E81515"/>
</g>
<defs>
<clipPath id="clip0_13_18">
<rect width="21" height="20" fill="white"/>
</clipPath>
</defs>
</svg>
