<svg width="31" height="20" viewBox="0 0 31 20" fill="none" xmlns="http://www.w3.org/2000/svg">
<g clip-path="url(#clip0_13_55)">
<path d="M5.83339 4.35361C6.45729 4.35361 6.96307 3.87058 6.96307 3.27474C6.96307 2.67889 6.45729 2.19586 5.83339 2.19586C5.20948 2.19586 4.7037 2.67889 4.7037 3.27474C4.7037 3.87058 5.20948 4.35361 5.83339 4.35361Z" fill="black"/>
<path d="M7.08219 5.09824L5.8334 5.99686L4.58461 5.09824C3.04814 5.53836 3.06738 7.02411 3.06738 7.02411H5.8334H8.59942C8.59942 7.02411 8.61867 5.53836 7.08219 5.09824Z" fill="black"/>
<path d="M0.706299 -0.230499V9.46187H10.8551V-0.230499H0.706299ZM9.9389 8.58687H1.6225V0.644501H9.9389V8.58687Z" fill="black"/>
<path d="M28.8961 2.04187H13.1099V2.91687H28.8961V2.04187Z" fill="black"/>
<path d="M26.6422 5.25488H13.1099V6.12988H26.6422V5.25488Z" fill="black"/>
<path d="M25.004 15.1223C25.6279 15.1223 26.1337 14.6392 26.1337 14.0434C26.1337 13.4475 25.6279 12.9645 25.004 12.9645C24.3801 12.9645 23.8743 13.4475 23.8743 14.0434C23.8743 14.6392 24.3801 15.1223 25.004 15.1223Z" fill="black"/>
<path d="M26.2519 15.8669L25.0032 16.7655L23.7544 15.8669C22.2179 16.307 22.2371 17.7928 22.2371 17.7928H25.0032H27.7692C27.7692 17.7928 27.7884 16.307 26.2519 15.8669Z" fill="black"/>
<path d="M19.8761 10.5381V20.2305H30.0249V10.5381H19.8761ZM29.1086 19.3555H20.7923V11.4131H29.1086V19.3555Z" fill="black"/>
<path d="M17.6204 13.8701H1.83417V14.7451H17.6204V13.8701Z" fill="black"/>
<path d="M17.6213 17.0963H4.08986V17.9713H17.6213V17.0963Z" fill="black"/>
</g>
<defs>
<clipPath id="clip0_13_55">
<rect width="29.3186" height="20" fill="white" transform="translate(0.706299)"/>
</clipPath>
</defs>
</svg>
