<svg width="90" height="46" viewBox="0 0 90 46" fill="none" xmlns="http://www.w3.org/2000/svg">
<g filter="url(#filter0_d_13_30)">
<rect x="10" y="6" width="70" height="26" rx="13" fill="#FEFEFF" fill-opacity="0.88" shape-rendering="crispEdges"/>
<rect x="10.15" y="6.15" width="69.7" height="25.7" rx="12.85" stroke="#6853A8" stroke-width="0.3" shape-rendering="crispEdges"/>
</g>
<path d="M22.87 22V15H25.9C26.5267 15 27.0667 15.1033 27.52 15.31C27.9733 15.51 28.3233 15.8 28.57 16.18C28.8167 16.56 28.94 17.0133 28.94 17.54C28.94 18.06 28.8167 18.51 28.57 18.89C28.3233 19.27 27.9733 19.5633 27.52 19.77C27.0667 19.97 26.5267 20.07 25.9 20.07H23.77L24.49 19.34V22H22.87ZM24.49 19.52L23.77 18.75H25.81C26.31 18.75 26.6833 18.6433 26.93 18.43C27.1767 18.2167 27.3 17.92 27.3 17.54C27.3 17.1533 27.1767 16.8533 26.93 16.64C26.6833 16.4267 26.31 16.32 25.81 16.32H23.77L24.49 15.55V19.52ZM33.1089 22.08C32.4956 22.08 31.9556 21.96 31.4889 21.72C31.0289 21.48 30.6722 21.1533 30.4189 20.74C30.1656 20.32 30.0389 19.8433 30.0389 19.31C30.0389 18.77 30.1622 18.2933 30.4089 17.88C30.6622 17.46 31.0056 17.1333 31.4389 16.9C31.8722 16.66 32.3622 16.54 32.9089 16.54C33.4356 16.54 33.9089 16.6533 34.3289 16.88C34.7556 17.1 35.0922 17.42 35.3389 17.84C35.5856 18.2533 35.7089 18.75 35.7089 19.33C35.7089 19.39 35.7056 19.46 35.6989 19.54C35.6922 19.6133 35.6856 19.6833 35.6789 19.75H31.3089V18.84H34.8589L34.2589 19.11C34.2589 18.83 34.2022 18.5867 34.0889 18.38C33.9756 18.1733 33.8189 18.0133 33.6189 17.9C33.4189 17.78 33.1856 17.72 32.9189 17.72C32.6522 17.72 32.4156 17.78 32.2089 17.9C32.0089 18.0133 31.8522 18.1767 31.7389 18.39C31.6256 18.5967 31.5689 18.8433 31.5689 19.13V19.37C31.5689 19.6633 31.6322 19.9233 31.7589 20.15C31.8922 20.37 32.0756 20.54 32.3089 20.66C32.5489 20.7733 32.8289 20.83 33.1489 20.83C33.4356 20.83 33.6856 20.7867 33.8989 20.7C34.1189 20.6133 34.3189 20.4833 34.4989 20.31L35.3289 21.21C35.0822 21.49 34.7722 21.7067 34.3989 21.86C34.0256 22.0067 33.5956 22.08 33.1089 22.08ZM39.2661 22.1C39.7728 22.1 40.2261 22.0333 40.6261 21.9C41.0328 21.76 41.3528 21.5633 41.5861 21.31C41.8261 21.05 41.9461 20.7467 41.9461 20.4C41.9461 19.9933 41.7761 19.6733 41.4361 19.44C41.0961 19.2 40.6294 19.08 40.0361 19.08L39.9961 19.39C40.3361 19.39 40.6428 19.3333 40.9161 19.22C41.1894 19.1 41.4028 18.9367 41.5561 18.73C41.7161 18.5233 41.7961 18.29 41.7961 18.03C41.7961 17.7033 41.6794 17.4267 41.4461 17.2C41.2194 16.9733 40.9061 16.8 40.5061 16.68C40.1061 16.56 39.6561 16.5067 39.1561 16.52C38.8161 16.5267 38.4728 16.5733 38.1261 16.66C37.7794 16.7467 37.4294 16.8633 37.0761 17.01L37.4561 18.09C37.7561 17.97 38.0494 17.88 38.3361 17.82C38.6228 17.7533 38.8994 17.72 39.1661 17.72C39.3994 17.72 39.5928 17.7433 39.7461 17.79C39.8994 17.83 40.0161 17.89 40.0961 17.97C40.1761 18.05 40.2161 18.1467 40.2161 18.26C40.2161 18.3667 40.1828 18.46 40.1161 18.54C40.0561 18.6133 39.9628 18.67 39.8361 18.71C39.7094 18.75 39.5561 18.77 39.3761 18.77H38.4061V19.74H39.5061C39.7861 19.74 39.9994 19.7867 40.1461 19.88C40.2928 19.9667 40.3661 20.0967 40.3661 20.27C40.3661 20.4033 40.3194 20.5167 40.2261 20.61C40.1328 20.7033 39.9961 20.7767 39.8161 20.83C39.6428 20.8767 39.4361 20.9 39.1961 20.9C38.8628 20.9 38.5328 20.8667 38.2061 20.8C37.8861 20.7267 37.5894 20.6233 37.3161 20.49L36.8961 21.58C37.2428 21.7533 37.6194 21.8833 38.0261 21.97C38.4394 22.0567 38.8528 22.1 39.2661 22.1ZM43.6613 22V16.62H45.2113V18.6H46.7913V19.95H45.2113V22H43.6613ZM48.7513 22.08C48.198 22.08 47.7047 21.96 47.2713 21.72C46.838 21.48 46.498 21.1533 46.2513 20.74C46.0047 20.32 45.8813 19.8433 45.8813 19.31C45.8813 18.77 46.0047 18.2933 46.2513 17.88C46.498 17.46 46.838 17.1333 47.2713 16.9C47.7047 16.66 48.198 16.54 48.7513 16.54C49.3047 16.54 49.7947 16.66 50.2213 16.9C50.6547 17.1333 50.9947 17.46 51.2413 17.88C51.488 18.2933 51.6113 18.77 51.6113 19.31C51.6113 19.8433 51.488 20.32 51.2413 20.74C50.9947 21.16 50.6547 21.49 50.2213 21.73C49.7947 21.9633 49.3047 22.08 48.7513 22.08ZM48.7513 20.8C49.0047 20.8 49.228 20.74 49.4213 20.62C49.6213 20.5 49.778 20.33 49.8913 20.11C50.0113 19.8833 50.0713 19.6167 50.0713 19.31C50.0713 18.9967 50.0113 18.73 49.8913 18.51C49.778 18.29 49.6213 18.12 49.4213 18C49.228 17.88 49.0047 17.82 48.7513 17.82C48.5047 17.82 48.278 17.88 48.0713 18C47.8713 18.12 47.7113 18.29 47.5913 18.51C47.478 18.73 47.4213 18.9967 47.4213 19.31C47.4213 19.6167 47.478 19.8833 47.5913 20.11C47.7113 20.33 47.8713 20.5 48.0713 20.62C48.278 20.74 48.5047 20.8 48.7513 20.8ZM53.2945 22V16.62H54.9245L56.9545 20.3H56.3045L58.4745 16.62H59.9345L59.9545 22H58.5445V18.22L58.7845 18.38L56.9345 21.48H56.2745L54.4145 18.27L54.7045 18.2V22H53.2945ZM64.6788 22.08C64.0655 22.08 63.5255 21.96 63.0588 21.72C62.5988 21.48 62.2422 21.1533 61.9888 20.74C61.7355 20.32 61.6088 19.8433 61.6088 19.31C61.6088 18.77 61.7322 18.2933 61.9788 17.88C62.2322 17.46 62.5755 17.1333 63.0088 16.9C63.4422 16.66 63.9322 16.54 64.4788 16.54C65.0055 16.54 65.4788 16.6533 65.8988 16.88C66.3255 17.1 66.6622 17.42 66.9088 17.84C67.1555 18.2533 67.2788 18.75 67.2788 19.33C67.2788 19.39 67.2755 19.46 67.2688 19.54C67.2622 19.6133 67.2555 19.6833 67.2488 19.75H62.8788V18.84H66.4288L65.8288 19.11C65.8288 18.83 65.7722 18.5867 65.6588 18.38C65.5455 18.1733 65.3888 18.0133 65.1888 17.9C64.9888 17.78 64.7555 17.72 64.4888 17.72C64.2222 17.72 63.9855 17.78 63.7788 17.9C63.5788 18.0133 63.4222 18.1767 63.3088 18.39C63.1955 18.5967 63.1388 18.8433 63.1388 19.13V19.37C63.1388 19.6633 63.2022 19.9233 63.3288 20.15C63.4622 20.37 63.6455 20.54 63.8788 20.66C64.1188 20.7733 64.3988 20.83 64.7188 20.83C65.0055 20.83 65.2555 20.7867 65.4688 20.7C65.6888 20.6133 65.8888 20.4833 66.0688 20.31L66.8988 21.21C66.6522 21.49 66.3422 21.7067 65.9688 21.86C65.5955 22.0067 65.1655 22.08 64.6788 22.08Z" fill="#4F3795"/>
<defs>
<filter id="filter0_d_13_30" x="0" y="0" width="90" height="46" filterUnits="userSpaceOnUse" color-interpolation-filters="sRGB">
<feFlood flood-opacity="0" result="BackgroundImageFix"/>
<feColorMatrix in="SourceAlpha" type="matrix" values="0 0 0 0 0 0 0 0 0 0 0 0 0 0 0 0 0 0 127 0" result="hardAlpha"/>
<feOffset dy="4"/>
<feGaussianBlur stdDeviation="5"/>
<feComposite in2="hardAlpha" operator="out"/>
<feColorMatrix type="matrix" values="0 0 0 0 0.309944 0 0 0 0 0.213889 0 0 0 0 0.583333 0 0 0 0.49 0"/>
<feBlend mode="normal" in2="BackgroundImageFix" result="effect1_dropShadow_13_30"/>
<feBlend mode="normal" in="SourceGraphic" in2="effect1_dropShadow_13_30" result="shape"/>
</filter>
</defs>
</svg>
