<?xml version="1.0" encoding="UTF-8"?>
<!-- Generated by Pixelmator Pro 2.4.5 -->
<svg width="17" height="22" viewBox="0 0 17 22" xmlns="http://www.w3.org/2000/svg" xmlns:xlink="http://www.w3.org/1999/xlink">
    <g id="Group-copy">
        <path id="Path" fill="#010002" stroke="none" d="M 7.364601 0.004303 C 7.3433 0.005402 7.322601 0.010399 7.301998 0.014999 C 7.2742 0.021194 7.247002 0.028503 7.221199 0.040199 C 7.201801 0.048698 7.183998 0.059799 7.166199 0.070999 C 7.152901 0.079498 7.137501 0.084198 7.125401 0.0942 L -0.0028 5.990898 C -0.0112 5.997803 -0.0145 6.008301 -0.022202 6.015594 C -0.0448 6.037598 -0.062901 6.062302 -0.079102 6.088196 C -0.090401 6.106705 -0.102501 6.124802 -0.111099 6.144501 C -0.123199 6.174194 -0.127998 6.205505 -0.132099 6.237503 C -0.134102 6.252998 -0.1422 6.2668 -0.1422 6.2827 L -0.1422 17.080101 C -0.1422 19.792801 2.1689 22 5.009399 22 L 11.062599 22 C 13.903099 22 16.214203 19.792801 16.214203 17.080101 L 16.214203 4.919899 C 16.214302 2.207199 14.144402 0 11.600498 0 L 7.390099 0 C 7.381199 0 7.3736 0.003799 7.364601 0.004303 Z M 6.623199 1.530998 L 5.0508 6.729996 C 4.071201 5.6035 2.841 5.400002 1.848499 5.480698 L 6.623199 1.530998 Z M 15.405701 4.919899 L 15.405701 17.080101 C 15.405701 19.3675 13.4571 21.228104 11.062302 21.228104 L 5.009102 21.228104 C 2.6143 21.228104 0.665699 19.3675 0.665699 17.080101 L 0.665699 6.529297 C 1.360401 6.251801 3.5471 5.606201 4.849098 7.812103 C 4.921398 7.934097 5.0564 8.008499 5.201 8.008499 C 5.216801 8.008499 5.232498 8.007797 5.247898 8.005798 C 5.409599 7.987701 5.544102 7.878899 5.589401 7.7295 L 7.694 0.771896 L 11.600201 0.771896 C 13.698303 0.771896 15.405701 2.6325 15.405701 4.919899 Z"/>
        <path id="path1" fill="#010002" stroke="none" d="M 5.453201 10.1707 C 5.453201 11.567703 6.643299 12.7043 8.106098 12.7043 C 9.569 12.7043 10.759102 11.567703 10.759102 10.1707 C 10.759102 8.773605 9.569 7.637001 8.106098 7.637001 C 6.643299 7.637001 5.453201 8.773201 5.453201 10.1707 Z M 8.106201 8.408798 C 9.123402 8.408798 9.951 9.199203 9.951 10.170303 C 9.951 11.142105 9.123402 11.931999 8.106201 11.931999 C 7.0891 11.931999 6.261501 11.141602 6.261501 10.170303 C 6.261501 9.199295 7.0891 8.408798 8.106201 8.408798 Z"/>
        <path id="path2" fill="#010002" stroke="none" d="M 8.105 13.211102 C 7.359001 13.211102 6.6474 13.334999 6.101398 13.560001 L 4.204201 14.3419 C 4.056198 14.402901 3.960098 14.542198 3.960098 14.696201 L 3.960098 16.5298 C 3.960098 17.753601 5.0872 18.749001 6.4725 18.749001 L 9.740101 18.749001 C 11.125401 18.749001 12.252499 17.763699 12.252499 16.553001 L 12.252499 14.743 C 12.252499 14.591702 12.159901 14.4547 12.016499 14.3922 L 10.171799 13.5867 C 9.617199 13.3442 8.883301 13.211102 8.105 13.211102 Z M 11.444199 16.552898 C 11.444199 17.3382 10.6796 17.977001 9.740002 17.977001 L 6.472401 17.977001 C 5.532799 17.977001 4.7682 17.3274 4.7682 16.529701 L 4.7682 14.949699 L 6.421398 14.268101 C 6.868801 14.083599 7.4664 13.982498 8.105 13.982498 C 8.760399 13.982498 9.3908 14.093601 9.8358 14.2878 L 11.444099 14.9902 L 11.444099 16.552898 L 11.444199 16.552898 Z"/>
    </g>
</svg>
